<svg width="27" height="27" viewBox="0 0 27 27" fill="none" xmlns="http://www.w3.org/2000/svg">
<path fill-rule="evenodd" clip-rule="evenodd" d="M8.06629 4.36574L4.61254 7.24574C4.14004 7.63949 3.43129 7.58324 3.03754 7.09949C2.63254 6.62699 2.70004 5.91824 3.17254 5.51324L6.63754 2.63324C7.11004 2.23949 7.81879 2.29574 8.21254 2.77949C8.61754 3.25199 8.55004 3.96074 8.06629 4.36574ZM23.8275 5.51324L20.3625 2.63324C19.89 2.23949 19.1813 2.29574 18.7763 2.77949C18.3825 3.25199 18.45 3.96074 18.9225 4.36574L22.3763 7.24574C22.8488 7.63949 23.5575 7.58324 23.9625 7.09949C24.3675 6.62699 24.3 5.91824 23.8275 5.51324ZM17.8538 17.0332L14.0625 14.7832V9.68699C14.0625 9.23699 13.7025 8.87699 13.2525 8.87699H13.185C12.735 8.87699 12.375 9.23699 12.375 9.68699V14.997C12.375 15.3907 12.5775 15.762 12.9263 15.9645L17.0325 18.4282C17.415 18.6532 17.91 18.5407 18.135 18.1582C18.3713 17.7645 18.2475 17.2582 17.8538 17.0332ZM13.5 4.37701C7.90878 4.37701 3.37503 8.91076 3.37503 14.502C3.37503 20.0933 7.90878 24.627 13.5 24.627C19.0913 24.627 23.625 20.0933 23.625 14.502C23.625 8.91076 19.0913 4.37701 13.5 4.37701ZM5.62503 14.502C5.62503 18.8445 9.15753 22.377 13.5 22.377C17.8425 22.377 21.375 18.8445 21.375 14.502C21.375 10.1595 17.8425 6.627 13.5 6.627C9.15753 6.627 5.62503 10.1595 5.62503 14.502Z" fill="white"/>
</svg>
